PathFileType	4	(X/Y/Z)	OpenSim_Sub01_EMGBaseline_Accel.trc
DataRate	CameraRate	NumFrames	NumMarkers	Units	OrigDataRate	OrigDataStartFrame	OrigNumFrames
100	100	37	8	m	100	4753	7604
Frame#	Time	torso_imu_offset_imu	pelvis_imu_offset_imu	tibia_r_imu_offset_imu	femur_r_imu_offset_imu	tibia_l_imu_offset_imu	femur_l_imu_offset_imu	toes_r_imu_offset_imu	toes_l_imu_offset_imu
				X1	Y1	Z1	X2	Y2	Z2	X3	Y3	Z3	X4	Y4	Z4	X5	Y5	Z5	X6	Y6	Z6	X7	Y7	Z7	X8		Y8	Z8	

4753	47.52000000	7.99287814	-0.35482600	5.84582697	9.06541997	-0.72670317	2.21755808	4.56720785	6.63467744	1.30367478	8.27636798	0.63682322	1.73480294	9.09017821	-1.48765331	-0.87816391	9.23108987	1.00232235	-1.51594192	6.82479626	-0.35257017	8.00907376	5.50040859	1.11262955	10.78871486
4754	47.53000000	7.99829249	-0.39588073	5.91354692	8.95629935	-0.89264944	2.23493919	4.92616097	6.18234278	1.29945623	8.19581391	1.14212704	1.66465314	9.28315773	-1.08383659	-0.89441381	9.00318622	1.57709898	-1.72306609	8.06180372	-0.29606527	7.90666712	5.68176582	1.07001958	10.68662548
4755	47.54000000	8.05858531	-0.42871377	5.98428050	8.82157338	-0.90443265	2.24337950	5.31684699	5.55280686	1.34109920	8.08497753	1.58138922	1.59053911	9.51140164	-1.01928546	-0.88190589	8.83481958	2.15472768	-1.92193470	9.31748537	-0.16988951	7.88332592	5.85516320	0.98234184	10.60612908
4756	47.55000000	8.15367362	-0.41347413	6.04954321	8.71743352	-0.76108560	2.25338947	5.77685062	5.09459345	1.24619519	7.98569089	1.85388658	1.54882020	9.48949698	-1.13367817	-0.80658659	8.80097613	2.56858534	-2.01144778	10.56374057	-0.18572681	8.07855224	5.86294210	0.94264123	10.62152875
4757	47.56000000	8.25250768	-0.35127775	6.09759224	8.66028484	-0.52039905	2.25621121	6.34887228	4.93715646	1.00421688	7.91362131	1.93841586	1.54746667	9.23781844	-1.36036552	-0.71279300	8.85895551	2.76454899	-1.97181246	11.71243394	-0.36679174	8.44716432	5.72391699	0.95978446	10.70695885
4758	47.57000000	8.31561454	-0.27477293	6.11418460	8.63591057	-0.28537437	2.22826180	7.07950609	5.04130027	0.73692922	7.86429726	1.87497850	1.57259697	9.01207936	-1.70478627	-0.70516212	8.87551421	2.77512080	-1.84582622	12.62924992	-0.59125075	8.80185190	5.59270934	0.97785344	10.75947881
4759	47.58000000	8.32858522	-0.21212076	6.09574055	8.63698295	-0.13185088	2.15590080	7.95658971	5.35139219	0.53996577	7.83646056	1.69201636	1.61267880	8.99792995	-2.14584716	-0.82965732	8.78431639	2.66465810	-1.67793364	13.22472639	-0.78127877	9.00674198	5.57125947	0.96022780	10.72090150
4760	47.59000000	8.35213012	-0.17573869	6.07055640	8.67898499	-0.05150224	2.05616426	8.79307292	5.77584880	0.42120093	7.83994046	1.37894463	1.66483075	9.15484522	-2.57810720	-0.95328899	8.72475770	2.58555207	-1.51268938	13.54620953	-1.00090536	9.08966701	5.59458947	0.93258046	10.67191225
4761	47.60000000	8.45522044	-0.17380205	6.07160324	8.78046386	-0.02112678	1.95137472	9.38156278	6.20878501	0.37395077	7.88644145	0.92193531	1.72628515	9.40044571	-2.88965286	-0.91897536	8.86289699	2.69209802	-1.39320637	13.66815937	-1.33716173	9.10555960	5.57254119	0.92709635	10.71220478
4762	47.61000000	8.62262151	-0.19456442	6.11361826	8.94271133	-0.02778117	1.85809263	9.69409277	6.42977522	0.41647436	7.98505417	0.36659672	1.77204420	9.65178038	-3.10506425	-0.70420460	9.19461355	2.92354380	-1.34072086	13.69227017	-1.82882260	9.06197296	5.49995199	0.90106989	10.84171510
4763	47.62000000	8.77429685	-0.21095012	6.19729280	9.15372706	-0.06641735	1.78843999	9.84083132	6.13033013	0.58619893	8.14284205	-0.19571982	1.76001033	9.82547656	-3.35393627	-0.39006888	9.58479638	3.05363039	-1.35961475	13.74121868	-2.47748869	8.93001616	5.43707686	0.75420485	10.98359596
4764	47.63000000	8.85509383	-0.20415925	6.31052222	9.38938431	-0.12999601	1.75074143	9.95158337	5.14550140	0.87717407	8.34681813	-0.68728573	1.66487001	9.86242801	-3.69126168	-0.07606051	9.91394121	2.90104104	-1.43577550	13.96145656	-3.24922764	8.71780122	5.42981250	0.46466896	11.07290804
4765	47.64000000	8.88875338	-0.18115435	6.40425325	9.59053968	-0.20495756	1.74237718	10.20394393	3.74359238	1.15309120	8.52457229	-1.07434778	1.51248916	9.77566654	-3.94233194	0.09157265	10.11893022	2.43065189	-1.50142405	14.56847697	-4.00736477	8.54617712	5.47639079	0.24818140	11.08596445
4766	47.65000000	8.91195096	-0.15285616	6.42668973	9.69532314	-0.27645568	1.75759248	10.76452359	2.27061479	1.26227252	8.60283399	-1.33737686	1.34104330	9.59492984	-3.90736256	-0.02904999	10.15177081	1.64771732	-1.48531239	15.75374732	-4.60684069	8.53441688	5.56442547	0.34579256	11.01029088
4767	47.66000000	8.93664791	-0.11814176	6.38720849	9.69793685	-0.32842896	1.77400071	11.50336620	1.03677051	1.18369759	8.65984729	-1.54802434	1.23131163	9.40036067	-3.64680917	-0.38511644	10.03479976	0.75723824	-1.41275043	17.15824115	-5.06136452	8.46633411	5.65451190	0.72041518	10.88706471
4768	47.67000000	8.95578330	-0.06662207	6.34226444	9.63574513	-0.34388536	1.75642356	12.06231476	0.32464819	0.99692713	8.89040344	-1.84812343	1.29681056	9.31085717	-3.42139869	-0.77397790	9.84449116	0.11788622	-1.38335235	17.99943302	-5.50672850	7.86766024	5.68647397	1.12089805	10.79873892
4769	47.68000000	8.96536462	0.00564582	6.33215387	9.54404134	-0.31213622	1.68474481	12.20576001	0.35409836	0.78532656	9.37402514	-2.36925646	1.57327776	9.38453876	-3.41467948	-1.03945315	9.65550847	-0.03320579	-1.46378131	17.84526638	-5.89982317	6.46331786	5.63592704	1.35291973	10.79478395
4770	47.69000000	8.97197094	0.08274214	6.34556069	9.44866619	-0.24129406	1.58458164	12.07967634	1.16066077	0.63587855	9.83881539	-3.20718179	1.86283532	9.49596327	-3.56556202	-1.17488871	9.53299715	0.16820677	-1.61710971	17.33744570	-5.65661525	4.58983710	5.58642551	1.40738605	10.82351045
4771	47.70000000	8.98413065	0.14595911	6.36258368	9.37305576	-0.14331622	1.49037060	11.88073807	2.70488803	0.62610402	9.96983381	-4.43750684	1.93673825	9.49748341	-3.76727978	-1.19947107	9.53383712	0.52637645	-1.78895587	17.27646020	-4.13837081	2.66511732	5.63330407	1.31096324	10.81890413
4772	47.71000000	9.01029386	0.18982084	6.37764432	9.33081559	-0.03567752	1.44199376	11.50861941	4.33518399	0.68194048	9.78025894	-5.93342648	1.75065778	9.41700598	-3.90637450	-1.10537283	9.61756255	0.97946405	-1.95034943	17.86821371	-1.38429542	0.63261851	5.74956045	1.11298307	10.78045778
4773	47.72000000	9.05884571	0.21903763	6.39619070	9.32798080	0.05990221	1.48350488	10.63458242	4.92905916	0.61266706	9.53579652	-7.41232725	1.40220728	9.41753002	-3.86427430	-0.86400981	9.66879706	1.56867783	-2.09187979	18.86080437	2.04442553	-1.92916317	5.81405556	0.88021860	10.75807824
4774	47.73000000	9.13191395	0.23900122	6.42531045	9.36651070	0.12482915	1.63210311	9.21475404	3.80306076	0.26541267	9.42984308	-8.60000858	0.96363461	9.59970632	-3.57230885	-0.49751965	9.60533733	2.29094772	-2.20216193	19.86755748	5.43954705	-5.10538196	5.75429551	0.67109139	10.78510466
4775	47.74000000	9.21303787	0.25634949	6.47612005	9.43683248	0.15012258	1.82487244	8.06917367	1.61429205	-0.39130932	9.42163198	-9.25917726	0.42096663	9.86859696	-3.11047730	-0.18034232	9.44927697	3.00375755	-2.26244899	20.13632392	7.69574589	-7.95385955	5.64952716	0.51787405	10.84179320
4776	47.75000000	9.28274497	0.27688274	6.55940439	9.52719980	0.12894514	1.98545024	8.10210569	-0.74480157	-1.34450822	9.42781835	-9.17086325	-0.24400645	10.09948074	-2.58806569	-0.10041655	9.24409300	3.54465957	-2.25318905	18.94140034	7.74409276	-9.40587638	5.60121772	0.44652328	10.89935388
4777	47.76000000	9.32792119	0.29042108	6.66984098	9.62524727	0.05993689	2.05790445	9.08812343	-2.56890169	-2.25148206	9.37575481	-8.28816407	-0.87436371	10.26307114	-2.14129644	-0.22633027	9.06469178	3.83873715	-2.16315070	16.96384722	6.15870600	-9.34131575	5.62353835	0.46083021	10.94048981
4778	47.77000000	9.34034354	0.27449525	6.78970441	9.71813627	-0.05404147	2.00204688	9.93240165	-3.29690184	-2.51594866	9.20103283	-6.69670478	-1.17845528	10.40352720	-1.92709425	-0.35785910	9.01014935	3.87845484	-1.98752062	15.96680999	4.77771806	-8.36994249	5.66346859	0.54750779	10.95675614
4779	47.78000000	9.30709535	0.22255191	6.89632983	9.79742843	-0.20456787	1.79976535	9.83593302	-2.58533830	-1.84327001	8.84469711	-4.57782655	-0.97666227	10.53999801	-2.05859323	-0.34939566	9.14731473	3.65741854	-1.73888943	16.62049792	4.40066834	-6.64945174	5.67827889	0.67282270	10.94608643
4780	47.79000000	9.20093907	0.17626999	6.95332335	9.86779667	-0.36701756	1.49734149	8.94516274	-0.72643286	-0.85450252	8.26336634	-2.38715364	-0.43255513	10.61170378	-2.51722489	-0.23052592	9.44542949	3.16747532	-1.48107158	16.26483673	2.64438322	-2.93846027	5.66095407	0.74359256	10.92469067
4781	47.80000000	9.00292477	0.18111107	6.92597025	9.93611985	-0.51606934	1.15364448	7.62057046	1.82073135	-0.28058397	7.45067915	-0.61064529	0.22998319	10.55223105	-3.24432432	-0.06212135	9.85314486	2.40958784	-1.28418646	11.87155537	-3.13768339	4.01668521	5.61316320	0.66632407	10.91071888
4782	47.81000000	8.85772701	0.20570556	6.84266233	10.00601269	-0.66080402	0.83774994	6.80970548	3.85890463	0.03659407	6.91111724	0.57062089	0.83402270	10.43198768	-3.94561081	0.11148142	10.28104298	1.52598056	-1.17098742	4.11603586	-10.72818382	11.78279411	5.56771600	0.50733319	10.90079015
4783	47.82000000	9.03584471	0.15957504	6.78035847	10.07858088	-0.83674588	0.62659366	7.91134740	3.62329311	0.93918649	7.54198933	1.21023602	1.23886244	10.42667561	-4.14557978	0.25866933	10.61044575	0.76759036	-1.12776241	-3.47554151	-14.16748279	15.09066015	5.58136877	0.45590389	10.87496373
4784	47.83000000	9.63309104	-0.00157682	6.80078497	10.15968301	-1.02795017	0.60155179	11.41087608	0.26056865	2.83168837	9.69197571	1.32832924	1.41701099	10.67325715	-3.56800949	0.34149184	10.78224674	0.34671713	-1.13601729	-7.67692023	-9.98384057	11.41671173	5.67755796	0.63347108	10.83250143
4785	47.84000000	10.21659674	-0.18030199	6.91669349	10.26949248	-1.06351477	0.85659391	15.04508582	-4.33086760	4.76583784	12.04952463	0.82766299	1.67460096	11.18553482	-2.54268339	0.30219458	10.91658850	0.35254450	-1.16583541	-6.37094526	-2.38414677	6.61258706	5.77888236	0.95046251	10.83098971
4786	47.85000000	10.29804739	-0.26141520	7.12537068	10.42848475	-0.76088418	1.46723573	16.19904048	-7.80862096	5.59666699	13.09758159	-0.41000341	2.33466765	11.94471456	-1.50289963	0.08623468	11.15083146	0.83896569	-1.18493371	2.00554436	3.23864264	7.56992435	5.79445912	1.28099926	10.93128706
4787	47.86000000	10.02206290	-0.25645451	7.32818495	10.62205434	-0.19181099	2.19803000	14.59862035	-8.79928159	4.97819945	12.83706449	-2.49249468	3.05021623	12.78497331	-0.75437743	-0.25809156	11.38408821	1.67241569	-1.15721908	13.79455842	4.98683000	13.57248329	5.71063970	1.53968208	11.08186146
4788	47.87000000	10.02028025	-0.27448286	7.35274193	10.80860666	0.37624459	2.57433389	11.77158693	-6.67589787	3.17968834	12.43709879	-5.51927362	2.95868670	13.42742875	-0.50450622	-0.60334808	11.33218683	2.57507914	-1.04368297	21.32116531	3.65360658	18.04929025	5.57322347	1.67231534	11.14469753
4789	47.88000000	10.64879956	-0.39127898	7.12458472	10.96745071	0.74939868	2.36001021	9.18064836	-1.53636702	0.70421236	12.65821428	-9.13357275	1.48331137	13.75482288	-0.79992176	-0.85462493	10.86428771	3.33884315	-0.82843270	19.87380826	0.40945759	16.70263884	5.42003124	1.68165205	11.02613671
